<?xml version="1.0" standalone="no"?>
<!DOCTYPE svg PUBLIC "-//W3C//DTD SVG 20010904//EN"
 "http://www.w3.org/TR/2001/REC-SVG-20010904/DTD/svg10.dtd">
<svg version="1.0" xmlns="http://www.w3.org/2000/svg"
 width="500.000000pt" height="500.000000pt" viewBox="0 0 500.000000 500.000000"
 preserveAspectRatio="xMidYMid meet">
<metadata>
Created by potrace 1.14, written by Peter Selinger 2001-2017
</metadata>
<g transform="translate(0.000000,500.000000) scale(0.100000,-0.100000)"
fill="#000000" stroke="none">
<path d="M440 4936 c-186 -40 -345 -204 -379 -390 -16 -85 -15 -4034 0 -4108
39 -185 191 -340 379 -384 44 -11 444 -14 2065 -14 2198 0 2063 -4 2185 57 71
36 178 143 213 214 60 121 57 -15 57 2169 0 1404 -3 2024 -11 2065 -25 139
-135 285 -259 348 -122 61 13 57 -2185 56 -1525 0 -2023 -4 -2065 -13z"/>
</g>
</svg>
